<svg id="visual" viewBox="0 0 960 300" width="960" height="300" xmlns="http://www.w3.org/2000/svg" xmlns:xlink="http://www.w3.org/1999/xlink" version="1.1"><rect x="0" y="0" width="960" height="300" fill="#202731"></rect><g transform="translate(472.95637756322793 153.56014475508215)"><path d="M53.6 -78.4C69.9 -61.8 83.9 -46.8 98.4 -26.3C112.9 -5.8 127.8 20.3 125.8 45.4C123.9 70.5 105.2 94.7 81.4 102.7C57.6 110.6 28.8 102.3 6.1 93.9C-16.7 85.6 -33.3 77.2 -56.1 68.9C-79 60.7 -108 52.6 -111.5 37.3C-115.1 21.9 -93.2 -0.6 -79.7 -20.8C-66.2 -41.1 -61 -59 -49.1 -76.9C-37.2 -94.9 -18.6 -113 0 -113C18.6 -113 37.2 -94.9 53.6 -78.4" fill="#038373"></path></g></svg>