<svg id="visual" viewBox="0 0 960 300" width="960" height="300" xmlns="http://www.w3.org/2000/svg" xmlns:xlink="http://www.w3.org/1999/xlink" version="1.1"><rect x="0" y="0" width="960" height="300" fill="#202731"></rect><g transform="translate(486.3497587832821 162.32155486297066)"><path d="M63.3 -90.3C83.1 -72.7 101 -55.7 103.8 -36.3C106.5 -16.9 94.2 4.8 89 31.5C83.9 58.2 86 89.8 72.4 98.7C58.8 107.6 29.4 93.8 7.3 83.7C-14.7 73.6 -29.4 67.1 -53 61.5C-76.6 55.8 -109.2 50.9 -115.6 36.3C-122.1 21.7 -102.4 -2.6 -89.8 -25.5C-77.3 -48.4 -71.9 -69.9 -58.1 -89.4C-44.3 -108.9 -22.1 -126.5 -0.2 -126.2C21.7 -125.9 43.5 -107.9 63.3 -90.3" fill="#BB004B"></path></g></svg>