<svg id="visual" viewBox="0 0 1000 200" width="1000" height="200" xmlns="http://www.w3.org/2000/svg" xmlns:xlink="http://www.w3.org/1999/xlink" version="1.1"><rect x="0" y="0" width="1000" height="200" fill="#202731"></rect><path d="M0 87L12.8 83.8C25.7 80.7 51.3 74.3 77 68.8C102.7 63.3 128.3 58.7 154 61.3C179.7 64 205.3 74 231 76.8C256.7 79.7 282.3 75.3 308 75.2C333.7 75 359.3 79 385 83C410.7 87 436.3 91 461.8 96.8C487.3 102.7 512.7 110.3 538.2 107.7C563.7 105 589.3 92 615 84.8C640.7 77.7 666.3 76.3 692 80.3C717.7 84.3 743.3 93.7 769 100.2C794.7 106.7 820.3 110.3 846 104.5C871.7 98.7 897.3 83.3 923 76.5C948.7 69.7 974.3 71.3 987.2 72.2L1000 73L1000 0L987.2 0C974.3 0 948.7 0 923 0C897.3 0 871.7 0 846 0C820.3 0 794.7 0 769 0C743.3 0 717.7 0 692 0C666.3 0 640.7 0 615 0C589.3 0 563.7 0 538.2 0C512.7 0 487.3 0 461.8 0C436.3 0 410.7 0 385 0C359.3 0 333.7 0 308 0C282.3 0 256.7 0 231 0C205.3 0 179.7 0 154 0C128.3 0 102.7 0 77 0C51.3 0 25.7 0 12.8 0L0 0Z" fill="#0066FF" stroke-linecap="round" stroke-linejoin="miter"></path></svg>