<svg id="visual" viewBox="0 0 960 300" width="960" height="300" xmlns="http://www.w3.org/2000/svg" xmlns:xlink="http://www.w3.org/1999/xlink" version="1.1"><rect x="0" y="0" width="960" height="300" fill="#202731"></rect><g transform="translate(465.3665287182235 149.21723018108102)"><path d="M53.2 -63.7C76.9 -55.9 109.8 -51.1 122.7 -34.4C135.7 -17.7 128.7 10.9 116 33.9C103.3 56.8 84.9 74.1 64.6 80.7C44.3 87.3 22.1 83.1 0.3 82.7C-21.6 82.3 -43.1 85.7 -61.2 78.4C-79.2 71.1 -93.8 53.1 -98.6 33.3C-103.3 13.4 -98.3 -8.4 -87.9 -25C-77.6 -41.5 -62 -52.7 -46.5 -63.2C-31 -73.6 -15.5 -83.3 -0.4 -82.8C14.7 -82.2 29.4 -71.5 53.2 -63.7" fill="#BB004B"></path></g></svg>