<svg id="visual" viewBox="0 0 960 300" width="960" height="300" xmlns="http://www.w3.org/2000/svg" xmlns:xlink="http://www.w3.org/1999/xlink" version="1.1"><rect x="0" y="0" width="960" height="300" fill="#202731"></rect><g transform="translate(455.5314640415421 154.08955596431971)"><path d="M66.8 -93.9C87.7 -76.7 106.6 -58.7 118.9 -35.2C131.2 -11.7 137 17.3 129.7 43C122.5 68.7 102.4 91 78.6 103.2C54.9 115.5 27.4 117.8 4.6 111.4C-18.2 105.1 -36.4 90.2 -52 75.2C-67.5 60.3 -80.4 45.3 -83.3 28.8C-86.2 12.4 -79.3 -5.6 -71.1 -20.7C-62.9 -35.9 -53.5 -48.3 -41.4 -68.4C-29.4 -88.5 -14.7 -116.2 4.1 -121.9C22.9 -127.6 45.8 -111.1 66.8 -93.9" fill="#038373"></path></g></svg>