<svg id="visual" viewBox="0 0 960 300" width="960" height="300" xmlns="http://www.w3.org/2000/svg" xmlns:xlink="http://www.w3.org/1999/xlink" version="1.1"><rect x="0" y="0" width="960" height="300" fill="#202731"></rect><path d="M0 159L16 142.5C32 126 64 93 96 91C128 89 160 118 192 134C224 150 256 153 288 144.5C320 136 352 116 384 106.3C416 96.7 448 97.3 480 98.3C512 99.3 544 100.7 576 109.8C608 119 640 136 672 145.3C704 154.7 736 156.3 768 144.7C800 133 832 108 864 107.3C896 106.7 928 130.3 944 142.2L960 154L960 301L944 301C928 301 896 301 864 301C832 301 800 301 768 301C736 301 704 301 672 301C640 301 608 301 576 301C544 301 512 301 480 301C448 301 416 301 384 301C352 301 320 301 288 301C256 301 224 301 192 301C160 301 128 301 96 301C64 301 32 301 16 301L0 301Z" fill="#00cc8e"></path><path d="M0 178L16 177.3C32 176.7 64 175.3 96 162C128 148.7 160 123.3 192 117.7C224 112 256 126 288 141.3C320 156.7 352 173.3 384 172.2C416 171 448 152 480 143.2C512 134.3 544 135.7 576 135.7C608 135.7 640 134.3 672 135.5C704 136.7 736 140.3 768 144C800 147.7 832 151.3 864 148C896 144.7 928 134.3 944 129.2L960 124L960 301L944 301C928 301 896 301 864 301C832 301 800 301 768 301C736 301 704 301 672 301C640 301 608 301 576 301C544 301 512 301 480 301C448 301 416 301 384 301C352 301 320 301 288 301C256 301 224 301 192 301C160 301 128 301 96 301C64 301 32 301 16 301L0 301Z" fill="#00b98a"></path><path d="M0 182L16 177C32 172 64 162 96 162.7C128 163.3 160 174.7 192 173C224 171.3 256 156.7 288 149.7C320 142.7 352 143.3 384 144.8C416 146.3 448 148.7 480 155.3C512 162 544 173 576 173C608 173 640 162 672 166.7C704 171.3 736 191.7 768 199.7C800 207.7 832 203.3 864 202.8C896 202.3 928 205.7 944 207.3L960 209L960 301L944 301C928 301 896 301 864 301C832 301 800 301 768 301C736 301 704 301 672 301C640 301 608 301 576 301C544 301 512 301 480 301C448 301 416 301 384 301C352 301 320 301 288 301C256 301 224 301 192 301C160 301 128 301 96 301C64 301 32 301 16 301L0 301Z" fill="#00a784"></path><path d="M0 237L16 235.2C32 233.3 64 229.7 96 228.2C128 226.7 160 227.3 192 223.7C224 220 256 212 288 215C320 218 352 232 384 238.3C416 244.7 448 243.3 480 234C512 224.7 544 207.3 576 206.2C608 205 640 220 672 220.3C704 220.7 736 206.3 768 205C800 203.7 832 215.3 864 214.2C896 213 928 199 944 192L960 185L960 301L944 301C928 301 896 301 864 301C832 301 800 301 768 301C736 301 704 301 672 301C640 301 608 301 576 301C544 301 512 301 480 301C448 301 416 301 384 301C352 301 320 301 288 301C256 301 224 301 192 301C160 301 128 301 96 301C64 301 32 301 16 301L0 301Z" fill="#00957c"></path><path d="M0 240L16 243.7C32 247.3 64 254.7 96 258.7C128 262.7 160 263.3 192 259C224 254.7 256 245.3 288 241.7C320 238 352 240 384 245.3C416 250.7 448 259.3 480 256.5C512 253.7 544 239.3 576 233.5C608 227.7 640 230.3 672 232.2C704 234 736 235 768 236C800 237 832 238 864 243.5C896 249 928 259 944 264L960 269L960 301L944 301C928 301 896 301 864 301C832 301 800 301 768 301C736 301 704 301 672 301C640 301 608 301 576 301C544 301 512 301 480 301C448 301 416 301 384 301C352 301 320 301 288 301C256 301 224 301 192 301C160 301 128 301 96 301C64 301 32 301 16 301L0 301Z" fill="#038373"></path></svg>