<svg id="visual" viewBox="0 0 960 300" width="960" height="300" xmlns="http://www.w3.org/2000/svg" xmlns:xlink="http://www.w3.org/1999/xlink" version="1.1"><rect x="0" y="0" width="960" height="300" fill="#202731"></rect><path d="M0 128L16 122.5C32 117 64 106 96 104.2C128 102.3 160 109.7 192 103.2C224 96.7 256 76.3 288 76.5C320 76.7 352 97.3 384 100.3C416 103.3 448 88.7 480 95C512 101.3 544 128.7 576 140C608 151.3 640 146.7 672 140.3C704 134 736 126 768 114.7C800 103.3 832 88.7 864 88.3C896 88 928 102 944 109L960 116L960 301L944 301C928 301 896 301 864 301C832 301 800 301 768 301C736 301 704 301 672 301C640 301 608 301 576 301C544 301 512 301 480 301C448 301 416 301 384 301C352 301 320 301 288 301C256 301 224 301 192 301C160 301 128 301 96 301C64 301 32 301 16 301L0 301Z" fill="#fa7268"></path><path d="M0 139L16 136.3C32 133.7 64 128.3 96 123.5C128 118.7 160 114.3 192 123.2C224 132 256 154 288 153.8C320 153.7 352 131.3 384 128.3C416 125.3 448 141.7 480 149.3C512 157 544 156 576 159.2C608 162.3 640 169.7 672 169.7C704 169.7 736 162.3 768 160.8C800 159.3 832 163.7 864 154.5C896 145.3 928 122.7 944 111.3L960 100L960 301L944 301C928 301 896 301 864 301C832 301 800 301 768 301C736 301 704 301 672 301C640 301 608 301 576 301C544 301 512 301 480 301C448 301 416 301 384 301C352 301 320 301 288 301C256 301 224 301 192 301C160 301 128 301 96 301C64 301 32 301 16 301L0 301Z" fill="#ef5f67"></path><path d="M0 191L16 185.5C32 180 64 169 96 166.7C128 164.3 160 170.7 192 179.5C224 188.3 256 199.7 288 201C320 202.3 352 193.7 384 183.8C416 174 448 163 480 160.8C512 158.7 544 165.3 576 166.7C608 168 640 164 672 162C704 160 736 160 768 164.8C800 169.7 832 179.3 864 186.5C896 193.7 928 198.3 944 200.7L960 203L960 301L944 301C928 301 896 301 864 301C832 301 800 301 768 301C736 301 704 301 672 301C640 301 608 301 576 301C544 301 512 301 480 301C448 301 416 301 384 301C352 301 320 301 288 301C256 301 224 301 192 301C160 301 128 301 96 301C64 301 32 301 16 301L0 301Z" fill="#e34c67"></path><path d="M0 238L16 230.7C32 223.3 64 208.7 96 208C128 207.3 160 220.7 192 223.3C224 226 256 218 288 214.8C320 211.7 352 213.3 384 210.5C416 207.7 448 200.3 480 195.3C512 190.3 544 187.7 576 186.7C608 185.7 640 186.3 672 191.5C704 196.7 736 206.3 768 212.7C800 219 832 222 864 223.2C896 224.3 928 223.7 944 223.3L960 223L960 301L944 301C928 301 896 301 864 301C832 301 800 301 768 301C736 301 704 301 672 301C640 301 608 301 576 301C544 301 512 301 480 301C448 301 416 301 384 301C352 301 320 301 288 301C256 301 224 301 192 301C160 301 128 301 96 301C64 301 32 301 16 301L0 301Z" fill="#d53867"></path><path d="M0 271L16 266.3C32 261.7 64 252.3 96 246.2C128 240 160 237 192 238.8C224 240.7 256 247.3 288 253.5C320 259.7 352 265.3 384 267.5C416 269.7 448 268.3 480 265.3C512 262.3 544 257.7 576 257.5C608 257.3 640 261.7 672 257.7C704 253.7 736 241.3 768 240C800 238.7 832 248.3 864 248C896 247.7 928 237.3 944 232.2L960 227L960 301L944 301C928 301 896 301 864 301C832 301 800 301 768 301C736 301 704 301 672 301C640 301 608 301 576 301C544 301 512 301 480 301C448 301 416 301 384 301C352 301 320 301 288 301C256 301 224 301 192 301C160 301 128 301 96 301C64 301 32 301 16 301L0 301Z" fill="#c62368"></path></svg>