<svg id="visual" viewBox="0 0 960 300" width="960" height="300" xmlns="http://www.w3.org/2000/svg" xmlns:xlink="http://www.w3.org/1999/xlink" version="1.1"><rect x="0" y="0" width="960" height="300" fill="#202731"></rect><path d="M0 117L16 109.7C32 102.3 64 87.7 96 83C128 78.3 160 83.7 192 80.7C224 77.7 256 66.3 288 61C320 55.7 352 56.3 384 69.3C416 82.3 448 107.7 480 121C512 134.3 544 135.7 576 132.3C608 129 640 121 672 109.7C704 98.3 736 83.7 768 86C800 88.3 832 107.7 864 122.8C896 138 928 149 944 154.5L960 160L960 301L944 301C928 301 896 301 864 301C832 301 800 301 768 301C736 301 704 301 672 301C640 301 608 301 576 301C544 301 512 301 480 301C448 301 416 301 384 301C352 301 320 301 288 301C256 301 224 301 192 301C160 301 128 301 96 301C64 301 32 301 16 301L0 301Z" fill="#fa7268"></path><path d="M0 107L16 108.8C32 110.7 64 114.3 96 128.3C128 142.3 160 166.7 192 166.2C224 165.7 256 140.3 288 139.5C320 138.7 352 162.3 384 169.7C416 177 448 168 480 161.5C512 155 544 151 576 142.5C608 134 640 121 672 124C704 127 736 146 768 150.5C800 155 832 145 864 141.5C896 138 928 141 944 142.5L960 144L960 301L944 301C928 301 896 301 864 301C832 301 800 301 768 301C736 301 704 301 672 301C640 301 608 301 576 301C544 301 512 301 480 301C448 301 416 301 384 301C352 301 320 301 288 301C256 301 224 301 192 301C160 301 128 301 96 301C64 301 32 301 16 301L0 301Z" fill="#ef5f67"></path><path d="M0 183L16 176.3C32 169.7 64 156.3 96 155.8C128 155.3 160 167.7 192 179.5C224 191.3 256 202.7 288 202.8C320 203 352 192 384 186.7C416 181.3 448 181.7 480 179.3C512 177 544 172 576 174.2C608 176.3 640 185.7 672 182.7C704 179.7 736 164.3 768 158.7C800 153 832 157 864 166C896 175 928 189 944 196L960 203L960 301L944 301C928 301 896 301 864 301C832 301 800 301 768 301C736 301 704 301 672 301C640 301 608 301 576 301C544 301 512 301 480 301C448 301 416 301 384 301C352 301 320 301 288 301C256 301 224 301 192 301C160 301 128 301 96 301C64 301 32 301 16 301L0 301Z" fill="#e34c67"></path><path d="M0 201L16 205.2C32 209.3 64 217.7 96 215.5C128 213.3 160 200.7 192 199.5C224 198.3 256 208.7 288 217.3C320 226 352 233 384 227.5C416 222 448 204 480 203.5C512 203 544 220 576 219.5C608 219 640 201 672 198.3C704 195.7 736 208.3 768 217.5C800 226.7 832 232.3 864 234.5C896 236.7 928 235.3 944 234.7L960 234L960 301L944 301C928 301 896 301 864 301C832 301 800 301 768 301C736 301 704 301 672 301C640 301 608 301 576 301C544 301 512 301 480 301C448 301 416 301 384 301C352 301 320 301 288 301C256 301 224 301 192 301C160 301 128 301 96 301C64 301 32 301 16 301L0 301Z" fill="#d53867"></path><path d="M0 234L16 238.5C32 243 64 252 96 254.8C128 257.7 160 254.3 192 249.5C224 244.7 256 238.3 288 233.8C320 229.3 352 226.7 384 231.8C416 237 448 250 480 256.7C512 263.3 544 263.7 576 260.7C608 257.7 640 251.3 672 244.7C704 238 736 231 768 233.5C800 236 832 248 864 253.5C896 259 928 258 944 257.5L960 257L960 301L944 301C928 301 896 301 864 301C832 301 800 301 768 301C736 301 704 301 672 301C640 301 608 301 576 301C544 301 512 301 480 301C448 301 416 301 384 301C352 301 320 301 288 301C256 301 224 301 192 301C160 301 128 301 96 301C64 301 32 301 16 301L0 301Z" fill="#c62368"></path></svg>