<svg id="visual" viewBox="0 0 1000 200" width="1000" height="200" xmlns="http://www.w3.org/2000/svg" xmlns:xlink="http://www.w3.org/1999/xlink" version="1.1"><rect x="0" y="0" width="1000" height="200" fill="#001220"></rect><path d="M0 85L16.7 81.3C33.3 77.7 66.7 70.3 100 69C133.3 67.7 166.7 72.3 200 68C233.3 63.7 266.7 50.3 300 50.5C333.3 50.7 366.7 64.3 400 66.3C433.3 68.3 466.7 58.7 500 62.8C533.3 67 566.7 85 600 92.5C633.3 100 666.7 97 700 93C733.3 89 766.7 84 800 76.5C833.3 69 866.7 59 900 58.7C933.3 58.3 966.7 67.7 983.3 72.3L1000 77L1000 201L983.3 201C966.7 201 933.3 201 900 201C866.7 201 833.3 201 800 201C766.7 201 733.3 201 700 201C666.7 201 633.3 201 600 201C566.7 201 533.3 201 500 201C466.7 201 433.3 201 400 201C366.7 201 333.3 201 300 201C266.7 201 233.3 201 200 201C166.7 201 133.3 201 100 201C66.7 201 33.3 201 16.7 201L0 201Z" fill="#fa7268"></path><path d="M0 92L16.7 90.2C33.3 88.3 66.7 84.7 100 81.5C133.3 78.3 166.7 75.7 200 81.7C233.3 87.7 266.7 102.3 300 102.2C333.3 102 366.7 87 400 85C433.3 83 466.7 94 500 99.2C533.3 104.3 566.7 103.7 600 105.8C633.3 108 666.7 113 700 113C733.3 113 766.7 108 800 107C833.3 106 866.7 109 900 102.8C933.3 96.7 966.7 81.3 983.3 73.7L1000 66L1000 201L983.3 201C966.7 201 933.3 201 900 201C866.7 201 833.3 201 800 201C766.7 201 733.3 201 700 201C666.7 201 633.3 201 600 201C566.7 201 533.3 201 500 201C466.7 201 433.3 201 400 201C366.7 201 333.3 201 300 201C266.7 201 233.3 201 200 201C166.7 201 133.3 201 100 201C66.7 201 33.3 201 16.7 201L0 201Z" fill="#ef5f67"></path><path d="M0 127L16.7 123.3C33.3 119.7 66.7 112.3 100 110.7C133.3 109 166.7 113 200 118.8C233.3 124.7 266.7 132.3 300 133.3C333.3 134.3 366.7 128.7 400 122.2C433.3 115.7 466.7 108.3 500 106.8C533.3 105.3 566.7 109.7 600 110.5C633.3 111.3 666.7 108.7 700 107.5C733.3 106.3 766.7 106.7 800 110C833.3 113.3 866.7 119.7 900 124.3C933.3 129 966.7 132 983.3 133.5L1000 135L1000 201L983.3 201C966.7 201 933.3 201 900 201C866.7 201 833.3 201 800 201C766.7 201 733.3 201 700 201C666.7 201 633.3 201 600 201C566.7 201 533.3 201 500 201C466.7 201 433.3 201 400 201C366.7 201 333.3 201 300 201C266.7 201 233.3 201 200 201C166.7 201 133.3 201 100 201C66.7 201 33.3 201 16.7 201L0 201Z" fill="#e34c67"></path><path d="M0 158L16.7 153.2C33.3 148.3 66.7 138.7 100 138.2C133.3 137.7 166.7 146.3 200 148.2C233.3 150 266.7 145 300 143C333.3 141 366.7 142 400 140C433.3 138 466.7 133 500 129.7C533.3 126.3 566.7 124.7 600 124C633.3 123.3 666.7 123.7 700 127.2C733.3 130.7 766.7 137.3 800 141.5C833.3 145.7 866.7 147.3 900 148C933.3 148.7 966.7 148.3 983.3 148.2L1000 148L1000 201L983.3 201C966.7 201 933.3 201 900 201C866.7 201 833.3 201 800 201C766.7 201 733.3 201 700 201C666.7 201 633.3 201 600 201C566.7 201 533.3 201 500 201C466.7 201 433.3 201 400 201C366.7 201 333.3 201 300 201C266.7 201 233.3 201 200 201C166.7 201 133.3 201 100 201C66.7 201 33.3 201 16.7 201L0 201Z" fill="#d53867"></path><path d="M0 180L16.7 177C33.3 174 66.7 168 100 164C133.3 160 166.7 158 200 159.2C233.3 160.3 266.7 164.7 300 168.7C333.3 172.7 366.7 176.3 400 177.8C433.3 179.3 466.7 178.7 500 176.7C533.3 174.7 566.7 171.3 600 171.2C633.3 171 666.7 174 700 171.3C733.3 168.7 766.7 160.3 800 159.3C833.3 158.3 866.7 164.7 900 164.5C933.3 164.3 966.7 157.7 983.3 154.3L1000 151L1000 201L983.3 201C966.7 201 933.3 201 900 201C866.7 201 833.3 201 800 201C766.7 201 733.3 201 700 201C666.7 201 633.3 201 600 201C566.7 201 533.3 201 500 201C466.7 201 433.3 201 400 201C366.7 201 333.3 201 300 201C266.7 201 233.3 201 200 201C166.7 201 133.3 201 100 201C66.7 201 33.3 201 16.7 201L0 201Z" fill="#c62368"></path></svg>